<svg xmlns="http://www.w3.org/2000/svg" viewBox="0 0 25 25"><mask id="dark_mode__a" style="mask-type:alpha" maskUnits="userSpaceOnUse" x="0" y="0" width="25" height="25"><path d="M.558.279h24v24h-24z"/></mask><g mask="url(#dark_mode__a)"><path d="M12.558 21.28c-2.5 0-4.625-.876-6.375-2.626S3.558 14.78 3.558 12.28s.875-4.625 2.625-6.375 3.875-2.625 6.375-2.625a9.302 9.302 0 0 1 1.35.1 5.293 5.293 0 0 0-1.638 1.888 5.31 5.31 0 0 0-.612 2.512c0 1.5.525 2.775 1.575 3.825 1.05 1.05 2.325 1.575 3.825 1.575.916 0 1.758-.204 2.525-.612a5.322 5.322 0 0 0 1.875-1.638 9.288 9.288 0 0 1 .1 1.35c0 2.5-.875 4.625-2.625 6.375s-3.875 2.625-6.375 2.625Zm0-2c1.466 0 2.783-.405 3.95-1.213a7.012 7.012 0 0 0 2.55-3.163c-.334.084-.667.15-1 .2-.334.05-.667.075-1 .075-2.05 0-3.796-.72-5.238-2.162-1.441-1.442-2.162-3.188-2.162-5.238 0-.333.025-.666.075-1 .05-.333.116-.666.2-1A7.013 7.013 0 0 0 6.77 8.33c-.808 1.167-1.212 2.484-1.212 3.95 0 1.934.683 3.584 2.05 4.95 1.366 1.367 3.016 2.05 4.95 2.05Z"/></g></svg>